0
SECTION
2
HEADER
9
$INSUNITS
70
4
9
$ACADVER
1
AC1014
9
$HANDSEED
5
FFFF
0
ENDSEC
0
SECTION
2
TABLES
0
TABLE
2
VPORT
5
8
100
AcDbSymbolTable
0
ENDTAB
0
TABLE
2
LTYPE
5
5
100
AcDbSymbolTable
0
LTYPE
5
14
100
AcDbSymbolTableRecord
100
AcDbLinetypeTableRecord
2
BYBLOCK
70
0
0
LTYPE
5
15
100
AcDbSymbolTableRecord
100
AcDbLinetypeTableRecord
2
BYLAYER
70
0
0
ENDTAB
0
TABLE
2
LAYER
5
2
100
AcDbSymbolTable
70
2
0
LAYER
5
50
100
AcDbSymbolTableRecord
100
AcDbLayerTableRecord
2
0
70
0
6
CONTINUOUS
0
ENDTAB
0
TABLE
2
STYLE
5
3
100
AcDbSymbolTable
70
1
0
STYLE
5
11
100
AcDbSymbolTableRecord
100
AcDbTextStyleTableRecord
2
STANDARD
70
0
0
ENDTAB
0
TABLE
2
VIEW
5
6
100
AcDbSymbolTable
70
0
0
ENDTAB
0
TABLE
2
UCS
5
7
100
AcDbSymbolTable
70
0
0
ENDTAB
0
TABLE
2
APPID
5
9
100
AcDbSymbolTable
70
2
0
APPID
5
12
100
AcDbSymbolTableRecord
100
AcDbRegAppTableRecord
2
ACAD
70
0
0
ENDTAB
0
TABLE
2
DIMSTYLE
5
A
100
AcDbSymbolTable
70
1
0
ENDTAB
0
TABLE
2
BLOCK_RECORD
5
1
100
AcDbSymbolTable
70
1
0
BLOCK_RECORD
5
1F
100
AcDbSymbolTableRecord
100
AcDbBlockTableRecord
2
*MODEL_SPACE
0
BLOCK_RECORD
5
1B
100
AcDbSymbolTableRecord
100
AcDbBlockTableRecord
2
*PAPER_SPACE
0
ENDTAB
0
ENDSEC
0
SECTION
2
BLOCKS
0
BLOCK
5
20
100
AcDbEntity
100
AcDbBlockBegin
2
*MODEL_SPACE
0
ENDBLK
5
21
100
AcDbEntity
100
AcDbBlockEnd
0
BLOCK
5
1C
100
AcDbEntity
100
AcDbBlockBegin
2
*PAPER_SPACE
0
ENDBLK
5
1D
100
AcDbEntity
100
AcDbBlockEnd
0
ENDSEC
0
SECTION
2
ENTITIES
0
CIRCLE
5
100
100
AcDbEntity
8
0
100
AcDbCircle
10
147.79803825972076
20
130.01254651403198
30
0
40
0.99999999999999645
210
0
220
0
230
1
0
CIRCLE
5
101
100
AcDbEntity
8
0
100
AcDbCircle
10
109.24264068711928
20
125.75735931288072
30
0
40
0.99999999999999645
210
0
220
0
230
1
0
CIRCLE
5
102
100
AcDbEntity
8
0
100
AcDbCircle
10
100.75735931288071
20
125.75735931288072
30
0
40
0.99999999999999645
210
0
220
0
230
1
0
CIRCLE
5
103
100
AcDbEntity
8
0
100
AcDbCircle
10
100.75735931288072
20
134.24264068711926
30
0
40
0.99999999999999645
210
0
220
0
230
1
0
CIRCLE
5
104
100
AcDbEntity
8
0
100
AcDbCircle
10
109.24264068711929
20
134.24264068711926
30
0
40
0.99999999999999645
210
0
220
0
230
1
0
CIRCLE
5
105
100
AcDbEntity
8
0
100
AcDbCircle
10
105
20
130
30
0
40
2.5
210
0
220
0
230
1
0
CIRCLE
5
106
100
AcDbEntity
8
0
100
AcDbCircle
10
-147.79803825972076
20
130.01254651403198
30
0
40
0.99999999999999645
210
-1.7516230804060213e-46
220
-2.0743384259537148e-60
230
1
0
CIRCLE
5
107
100
AcDbEntity
8
0
100
AcDbCircle
10
-109.24264068711928
20
125.75735931288072
30
0
40
0.99999999999999645
210
-0
220
0
230
1
0
CIRCLE
5
108
100
AcDbEntity
8
0
100
AcDbCircle
10
-100.75735931288071
20
125.75735931288072
30
0
40
0.99999999999999645
210
-0
220
0
230
1
0
CIRCLE
5
109
100
AcDbEntity
8
0
100
AcDbCircle
10
-100.75735931288072
20
134.24264068711926
30
0
40
0.99999999999999645
210
-0
220
0
230
1
0
CIRCLE
5
110
100
AcDbEntity
8
0
100
AcDbCircle
10
-109.24264068711929
20
134.24264068711926
30
0
40
0.99999999999999645
210
-0
220
0
230
1
0
CIRCLE
5
111
100
AcDbEntity
8
0
100
AcDbCircle
10
-105
20
130
30
0
40
2.5
210
-0
220
0
230
1
0
CIRCLE
5
112
100
AcDbEntity
8
0
100
AcDbCircle
10
-109.24264068711929
20
-59.242640687119277
30
0
40
0.99999999999999645
210
-0
220
0
230
1
0
CIRCLE
5
113
100
AcDbEntity
8
0
100
AcDbCircle
10
-100.75735931288072
20
-59.242640687119284
30
0
40
0.99999999999999645
210
-0
220
0
230
1
0
CIRCLE
5
114
100
AcDbEntity
8
0
100
AcDbCircle
10
-100.75735931288071
20
-50.757359312880723
30
0
40
0.99999999999999645
210
-0
220
0
230
1
0
CIRCLE
5
115
100
AcDbEntity
8
0
100
AcDbCircle
10
-109.24264068711928
20
-50.757359312880716
30
0
40
0.99999999999999645
210
-0
220
0
230
1
0
CIRCLE
5
116
100
AcDbEntity
8
0
100
AcDbCircle
10
-105
20
-55
30
0
40
2.5
210
-0
220
0
230
1
0
LWPOLYLINE
5
117
100
AcDbEntity
8
0
100
AcDbPolyline
90
2
70
1
43
0.0
10
-7.3725747729014302e-17
20
94.08270352640821
42
1.0277577094639403
10
0
20
92.083452926509807
42
1.0277577094639403
0
CIRCLE
5
118
100
AcDbEntity
8
0
100
AcDbCircle
10
-2.9529025855190955e-30
20
30.062445751106956
30
0
40
0.99999999999999911
210
-0
220
0
230
1
0
CIRCLE
5
119
100
AcDbEntity
8
0
100
AcDbCircle
10
-2.9529025855190955e-30
20
-6.0000000894069672
30
0
40
0.99999999999999978
210
2.1891782086460253e-78
220
-2.4651903288156624e-32
230
1
0
CIRCLE
5
120
100
AcDbEntity
8
0
100
AcDbCircle
10
-10
20
45
30
0
40
0.99999999999999867
210
8.7581154020301067e-47
220
7.7775233671887095e-93
230
1
0
CIRCLE
5
121
100
AcDbEntity
8
0
100
AcDbCircle
10
-18.031222920256965
20
12.031222830849993
30
0
40
1.0000000000000009
210
-0
220
0
230
1
0
CIRCLE
5
122
100
AcDbEntity
8
0
100
AcDbCircle
10
10
20
45
30
0
40
0.99999999999999867
210
8.7581154020301067e-47
220
7.7775233671887095e-93
230
1
0
CIRCLE
5
123
100
AcDbEntity
8
0
100
AcDbCircle
10
-10.000000000000002
20
65
30
0
40
0.99999999999999867
210
8.7581154020301067e-47
220
7.7775233671887095e-93
230
1
0
CIRCLE
5
124
100
AcDbEntity
8
0
100
AcDbCircle
10
18.031222920256962
20
12.031222830849995
30
0
40
1.0000000000000009
210
-0
220
0
230
1
0
CIRCLE
5
125
100
AcDbEntity
8
0
100
AcDbCircle
10
10
20
65
30
0
40
0.99999999999999867
210
8.7581154020301067e-47
220
7.7775233671887095e-93
230
1
0
CIRCLE
5
126
100
AcDbEntity
8
0
100
AcDbCircle
10
-14.798990841171678
20
-20.723095294955751
30
0
40
0.99999999999999867
210
8.7581154020301067e-47
220
7.7775233671887095e-93
230
1
0
CIRCLE
5
127
100
AcDbEntity
8
0
100
AcDbCircle
10
-14.798990841171678
20
99.276904705044245
30
0
40
0.99999999999999867
210
8.7581154020301067e-47
220
7.7775233671887095e-93
230
1
0
CIRCLE
5
128
100
AcDbEntity
8
0
100
AcDbCircle
10
14.798990841171678
20
-20.723095294955751
30
0
40
0.99999999999999867
210
8.7581154020301067e-47
220
7.7775233671887095e-93
230
1
0
CIRCLE
5
129
100
AcDbEntity
8
0
100
AcDbCircle
10
14.798990841171678
20
99.276904705044245
30
0
40
0.99999999999999867
210
8.7581154020301067e-47
220
7.7775233671887095e-93
230
1
0
CIRCLE
5
130
100
AcDbEntity
8
0
100
AcDbCircle
10
-61.365672932111053
20
129.99999999999997
30
0
40
1.0000000000000053
210
0
220
0
230
1
0
CIRCLE
5
131
100
AcDbEntity
8
0
100
AcDbCircle
10
-61.365672932111053
20
-55.000000000000007
30
0
40
1.0000000000000053
210
0
220
0
230
1
0
CIRCLE
5
132
100
AcDbEntity
8
0
100
AcDbCircle
10
61.365672932111053
20
129.99999999999997
30
0
40
1.0000000000000053
210
0
220
0
230
1
0
CIRCLE
5
133
100
AcDbEntity
8
0
100
AcDbCircle
10
61.365672932111053
20
-55.000000000000007
30
0
40
1.0000000000000053
210
0
220
0
230
1
0
CIRCLE
5
134
100
AcDbEntity
8
0
100
AcDbCircle
10
42.00000062584877
20
-55.000000819563866
30
0
40
1.0000000000000053
210
-0
220
0
230
1
0
CIRCLE
5
135
100
AcDbEntity
8
0
100
AcDbCircle
10
30
20
130
30
0
40
1.0000000000000009
210
-0
220
0
230
1
0
CIRCLE
5
136
100
AcDbEntity
8
0
100
AcDbCircle
10
20.656811773556967
20
-25.596815606299899
30
0
40
0.99999999999999867
210
8.7581154020301067e-47
220
7.7775233671887095e-93
230
1
0
CIRCLE
5
137
100
AcDbEntity
8
0
100
AcDbCircle
10
34.986991629812479
20
112.08095607559663
30
0
40
1.0000000000000053
210
-0
220
0
230
1
0
LWPOLYLINE
5
138
100
AcDbEntity
8
0
100
AcDbPolyline
90
3
70
1
43
0.0
10
9.0506204145226121
20
-22.339868413869279
10
43.321759350880825
20
-50.757359312880723
10
9.0506204145226121
20
-50.757359312880723
0
LWPOLYLINE
5
139
100
AcDbEntity
8
0
100
AcDbPolyline
90
3
70
1
43
0.0
10
43.321759350880889
20
125.75735931288072
10
9.0506204145226121
20
97.33986841386924
10
9.0506204145226121
20
125.75735931288072
0
CIRCLE
5
140
100
AcDbEntity
8
0
100
AcDbCircle
10
100.75735931288071
20
-50.757359312880723
30
0
40
0.99999999999999645
210
0
220
0
230
1
0
CIRCLE
5
141
100
AcDbEntity
8
0
100
AcDbCircle
10
109.24264068711929
20
-59.242640687119277
30
0
40
0.99999999999999645
210
0
220
0
230
1
0
CIRCLE
5
142
100
AcDbEntity
8
0
100
AcDbCircle
10
100.75735931288072
20
-59.242640687119284
30
0
40
0.99999999999999645
210
0
220
0
230
1
0
CIRCLE
5
143
100
AcDbEntity
8
0
100
AcDbCircle
10
109.24264068711928
20
-50.757359312880716
30
0
40
0.99999999999999645
210
0
220
0
230
1
0
CIRCLE
5
144
100
AcDbEntity
8
0
100
AcDbCircle
10
105
20
-55
30
0
40
2.5
210
0
220
0
230
1
0
LWPOLYLINE
5
145
100
AcDbEntity
8
0
100
AcDbPolyline
90
96
70
1
43
0.0
10
107.47487373415291
20
136.01040764008565
10
107.12132034355966
20
135.65685424949243
42
-0.4142135623731012
10
102.87867965644037
20
135.65685424949243
10
102.52512626584709
20
136.01040764008567
42
0.47667707105251433
10
98.662008299859593
20
135.60627705075566
42
-0.25370880488172715
10
96.147587084234289
20
134.24264068711929
10
-96.147587084234289
20
134.24264068711929
42
-0.25370880488172715
10
-98.662008299859593
20
135.60627705075566
42
0.47667707105251278
10
-102.52512626584709
20
136.0104076400857
10
-102.87867965644034
20
135.65685424949243
42
-0.4142135623731012
10
-107.12132034355966
20
135.6568542494924
10
-107.47487373415291
20
136.01040764008565
42
0.49420127611766262
10
-111.41193645365639
20
135.48528137423855
10
-111.41193645365638
20
133.01254651403244
10
-147.79803825972078
20
133.01254651403195
42
0.99999999999999989
10
-147.7980382597207
20
127.01254651403198
10
-111.41193645365634
20
127.01254651403241
10
-111.41193645365634
20
124.51471862576136
42
0.49420127611764769
10
-107.47487373415291
20
123.98959235991434
10
-107.12132034355966
20
124.34314575050765
42
-0.41421356237309387
10
-102.87867965644037
20
124.34314575050766
10
-102.52512626584706
20
123.98959235991435
42
0.47667707105252283
10
-98.662008299859565
20
124.39372294924439
42
-0.25370880488172431
10
-96.147587084234232
20
125.75735931288072
10
-58.577115551162592
20
125.75735931288072
10
-9.0506204145226121
20
84.690188262073605
10
-9.0506204145226121
20
68.88570179024056
42
1.2737414893516481
10
-9.0506204145226121
20
61.114298209759426
10
-9.0506204145226121
20
48.885701790240567
42
1.2737414893516481
10
-9.0506204145226103
20
41.114298209759433
10
-9.0506204145226121
20
16.031222830849998
10
-18.031222920256965
20
16.031222830849995
42
0.99999999999999989
10
-18.031222920256962
20
8.0312228308499947
10
-9.0506204145226121
20
8.0312228308499911
10
-9.0506204145226121
20
-9.6901882620736188
10
-58.577115551162528
20
-50.757359312880723
10
-96.147587084234232
20
-50.75735931288073
42
-0.25370880488172631
10
-98.662008299859579
20
-49.393722949244378
42
0.47667707105252027
10
-102.52512626584706
20
-48.989592359914347
10
-102.87867965644037
20
-49.343145750507666
42
-0.41421356237309442
10
-107.12132034355966
20
-49.343145750507659
10
-107.47487373415291
20
-48.989592359914347
42
0.49420127611765396
10
-111.41193645365634
20
-49.514718625761404
10
-111.41193645365635
20
-51.987453485967578
10
-147.79803825971862
20
-51.987453485968032
42
0.99999999999999989
10
-147.79803825971854
20
-57.987453485968018
10
-111.41193645365635
20
-57.987453485967592
10
-111.41193645365638
20
-60.485281374238525
42
0.4942012761176634
10
-107.47487373415294
20
-61.010407640085624
10
-107.12132034355967
20
-60.656854249492397
42
-0.4142135623731012
10
-102.87867965644034
20
-60.656854249492412
10
-102.52512626584709
20
-61.01040764008566
42
0.47667707105251728
10
-98.662008299859593
20
-60.606277050755665
42
-0.25370880488172737
10
-96.147587084234289
20
-59.242640687119291
10
96.147587084234289
20
-59.242640687119291
42
-0.25370880488172715
10
98.662008299859593
20
-60.606277050755665
42
0.47667707105251828
10
102.52512626584709
20
-61.010407640085653
10
102.87867965644033
20
-60.656854249492412
42
-0.4142135623731012
10
107.12132034355967
20
-60.656854249492397
10
107.47487373415291
20
-61.010407640085646
42
0.49420127611766718
10
111.41193645365638
20
-60.485281374238497
10
111.41193645365639
20
-57.987453485967592
10
147.79803825972292
20
-57.987453485968018
42
0.99999999999999989
10
147.79803825972297
20
-51.987453485968032
10
111.41193645365635
20
-51.987453485967578
10
111.41193645365635
20
-49.514718625761425
42
0.49420127611765724
10
107.47487373415291
20
-48.98959235991434
10
107.12132034355966
20
-49.343145750507645
42
-0.41421356237309442
10
102.87867965644037
20
-49.343145750507666
10
102.52512626584706
20
-48.989592359914354
42
0.476677071052521
10
98.662008299859579
20
-49.393722949244378
42
-0.25370880488172631
10
96.147587084234232
20
-50.75735931288073
10
58.577115551162528
20
-50.757359312880723
10
9.0506204145226121
20
-9.6901882620736224
10
9.0506204145226121
20
8.0312228308499947
10
18.031222920256962
20
8.0312228308499947
42
0.99999999999999989
10
18.031222920256965
20
16.031222830849995
10
9.0506204145226121
20
16.031222830849998
10
9.0506204145226121
20
41.114298209759433
42
1.2737414893516481
10
9.0506204145226103
20
48.885701790240567
10
9.0506204145226121
20
61.114298209759433
42
1.2737414893516481
10
9.0506204145226103
20
68.88570179024056
10
9.0506204145226121
20
84.690188262073605
10
58.577115551162592
20
125.75735931288072
10
96.147587084234232
20
125.75735931288072
42
-0.25370880488172337
10
98.662008299859565
20
124.39372294924439
42
0.4766770710525241
10
102.52512626584706
20
123.98959235991435
10
102.87867965644037
20
124.34314575050765
42
-0.41421356237309387
10
107.12132034355963
20
124.34314575050765
10
107.47487373415291
20
123.98959235991434
42
0.49420127611764653
10
111.41193645365632
20
124.51471862576136
10
111.41193645365634
20
127.01254651403241
10
147.79803825972073
20
127.01254651403198
42
0.99999999999999989
10
147.79803825972076
20
133.01254651403195
10
111.41193645365638
20
133.01254651403241
10
111.41193645365638
20
135.48528137423855
42
0.49420127611766146
0
CIRCLE
5
146
100
AcDbEntity
8
0
100
AcDbCircle
10
-42.00000062584877
20
-55.000000819563866
30
0
40
1.0000000000000053
210
0
220
0
230
1
0
CIRCLE
5
147
100
AcDbEntity
8
0
100
AcDbCircle
10
-30
20
130
30
0
40
1.0000000000000009
210
0
220
0
230
1
0
CIRCLE
5
148
100
AcDbEntity
8
0
100
AcDbCircle
10
-20.656811773556967
20
-25.596815606299899
30
0
40
0.99999999999999867
210
8.7581154020301067e-47
220
7.7775233671887095e-93
230
1
0
CIRCLE
5
149
100
AcDbEntity
8
0
100
AcDbCircle
10
-2.9529025855190955e-30
20
-50
30
0
40
1.0000000000000022
210
8.7581154020301086e-47
220
-2.4651903288156624e-32
230
1
0
CIRCLE
5
150
100
AcDbEntity
8
0
100
AcDbCircle
10
-34.986991629812479
20
112.08095607559663
30
0
40
1.0000000000000053
210
0
220
0
230
1
0
LWPOLYLINE
5
151
100
AcDbEntity
8
0
100
AcDbPolyline
90
3
70
1
43
0.0
10
-43.321759350880825
20
-50.757359312880723
10
-9.0506204145226121
20
-22.339868413869269
10
-9.0506204145226121
20
-50.757359312880723
0
LWPOLYLINE
5
152
100
AcDbEntity
8
0
100
AcDbPolyline
90
3
70
1
43
0.0
10
-9.0506204145226103
20
97.339868413869254
10
-43.321759350880889
20
125.75735931288072
10
-9.0506204145226121
20
125.75735931288072
0
CIRCLE
5
153
100
AcDbEntity
8
0
100
AcDbCircle
10
147.79803825972294
20
-54.987453485968025
30
9.7234613716580339e-62
40
0.99999999999999645
210
0
220
0
230
1
0
CIRCLE
5
154
100
AcDbEntity
8
0
100
AcDbCircle
10
-147.79803825971857
20
-54.987453485968025
30
0
40
0.99999999999999645
210
-1.7516230804060213e-46
220
-2.0743384259537148e-60
230
1
0
ENDSEC
0
SECTION
2
OBJECTS
0
DICTIONARY
5
C
100
AcDbDictionary
3
ACAD_GROUP
350
D
3
ACAD_MLINESTYLE
350
17
0
DICTIONARY
5
D
100
AcDbDictionary
0
DICTIONARY
5
1A
330
C
100
AcDbDictionary
0
DICTIONARY
5
17
100
AcDbDictionary
0
ENDSEC
0
EOF
